<svg width="965" height="769" viewBox="0 0 965 769" fill="none" xmlns="http://www.w3.org/2000/svg">
<path d="M692.265 2.11811C689.504 3.23092 686.536 4.59103 685.67 5.12683C682.414 7.22882 633.533 57.5117 631.225 61.1798C628.834 65.0129 628.628 66.2493 628.216 80.2214C627.598 101.53 627.268 105.857 626.32 107.135C624.836 109.155 623.188 109.732 617.006 110.556C572.369 116.615 551.391 119.871 526.29 124.734C522.251 125.517 518.624 126.177 518.253 126.177C517.676 126.177 517.594 125.517 517.718 120.695C517.882 114.1 516.893 108.578 514.668 103.22C511.288 94.9765 504.281 86.074 499.294 83.601C496.079 82.0348 492.37 82.0348 489.403 83.601C485.569 85.703 469.166 99.9223 465.25 104.58C464.137 105.899 459.233 111.092 454.328 116.079C444.478 126.094 442.664 128.279 439.491 134.008C436.894 138.706 436.441 139.366 432.525 144.064C430.423 146.578 428.981 147.938 427.785 148.433C426.879 148.845 418.223 151.648 408.579 154.615C378.409 163.93 363.531 168.999 347.333 175.47C314.361 188.577 291.115 202.425 275.041 218.499C272.403 221.096 267.334 226.66 263.707 230.864C260.08 235.068 253.156 242.569 248.292 247.556C234.856 261.363 229.168 267.999 223.398 276.86C218.164 284.815 216.474 289.266 215.65 297.179C215.444 299.57 215.279 303.362 215.361 305.546L215.485 309.544L223.975 303.073C233.413 295.861 234.609 294.871 243.511 287.082C248.54 282.713 250.106 281.559 251.96 280.941C256 279.622 257.36 278.674 261.976 273.81C269.93 265.444 273.805 261.858 277.432 259.385C280.275 257.489 281.429 256.376 283.16 253.944C284.356 252.255 286.746 249.328 288.436 247.474L291.568 244.094L299.894 241.415C340.532 228.391 386.075 214.46 399.099 210.998C411.258 207.824 439.903 201.312 439.903 201.766C439.903 203.167 437.76 221.961 437.224 225.3C436.111 232.389 416.534 322.98 415.338 326.525C414.761 328.421 412.948 330.482 411.093 331.429C409.445 332.254 398.77 334.686 393.741 335.345C391.145 335.675 383.644 336.623 377.049 337.406C339.337 341.939 310.734 347.256 288.436 353.892C285.716 354.675 278.915 356.653 273.269 358.22C261.399 361.599 256.783 363.083 251.96 365.185C244.294 368.482 237.988 372.81 233.702 377.714C232.301 379.363 228.344 383.443 224.882 386.864C216.927 394.778 185.604 429.646 182.842 433.685C181.523 435.663 178.185 441.598 178.185 442.052C178.185 442.505 184.037 442.299 190.591 441.681C208.025 439.95 225.418 436.611 256.288 429.11C275.824 424.37 288.065 421.197 296.061 418.806C335.216 407.183 342.305 405.617 361.923 404.175C369.466 403.598 390.073 401.496 394.277 400.836C395.761 400.589 395.802 400.63 395.802 401.867C395.802 402.609 389.125 426.472 380.965 454.993C356.854 539.279 349.765 563.72 348.982 564.874C347.58 567.058 345.396 567.841 337.689 568.995C321.903 571.345 311.682 572.375 284.727 574.188C233.331 577.692 218.947 578.269 201.513 577.568C172.662 576.414 160.215 574.395 115.743 563.843C82.8122 556.012 76.5475 554.817 68.0983 554.817C59.3194 554.817 52.7662 556.754 46.3778 561.247C40.9373 565.039 14.477 592.529 6.15151 602.998L0.752288 609.799L0.711072 612.684C0.711072 614.291 0.546211 616.764 0.340133 618.165C-0.0308056 621.174 0.504995 622.864 2.15361 624.018C3.184 624.719 11.8805 628.263 19.4229 631.025C30.1389 634.981 57.712 641.947 75.7644 645.244C100.123 649.695 115.785 650.973 146.861 650.973C195.743 650.973 241.657 647.057 298.328 638.072C304.015 637.166 312.877 635.806 318.029 635.022C327.385 633.662 327.426 633.662 327.22 634.528C327.096 634.981 317.452 657.073 305.788 683.615L284.562 731.838L285.51 732.827L286.499 733.775L302.697 720.915C311.64 713.826 319.76 707.232 320.79 706.284C321.821 705.295 324.5 703.481 326.766 702.162C329.033 700.885 331.836 699.03 332.949 698.041C334.103 697.093 341.027 690.292 348.404 682.956C361.8 669.602 361.841 669.602 364.149 665.233C367.116 659.628 371.856 649.53 377.42 636.753C379.893 631.148 382.448 625.914 383.108 625.09C383.809 624.306 385.086 623.235 385.993 622.781C386.941 622.287 392.752 620.886 399.47 619.525C419.542 615.445 440.397 610.829 470.361 603.905C477.285 602.297 483.138 600.978 483.426 600.978C484.209 600.978 482.52 607.078 475.307 630.035C466.816 656.99 455.936 690.993 454.493 694.95C451.896 702.245 449.671 705.501 441.304 714.568C438.007 718.154 434.998 721.657 434.668 722.317C433.143 725.284 432.814 729.241 432.608 749.519C432.443 766.129 432.484 769.179 432.937 768.89C434.627 767.901 451.402 756.649 454.74 754.3C456.884 752.775 460.964 749.519 463.808 747.087C466.652 744.614 472.669 739.668 477.203 736.041C481.736 732.415 486.847 727.922 488.537 726.109C494.307 719.885 496.162 718.195 498.923 716.67C504.446 713.579 508.815 708.551 511.494 702.245C512.236 700.431 514.75 692.848 517.017 685.305C534.204 628.758 546.362 589.15 546.857 588.243C547.557 586.883 549.371 585.193 551.02 584.369C551.679 583.998 560.788 581.484 571.215 578.722C613.008 567.676 623.518 564.585 656.407 553.787C714.521 534.704 755.366 519.908 780.548 508.78C827.493 488.007 873.819 455.035 921.588 408.338C929.872 400.259 931.603 397.992 935.106 390.656C938.362 383.938 939.558 379.033 939.31 373.469C939.104 368.441 938.239 365.721 935.518 361.476C931.314 354.964 923.566 349.193 909.305 341.939C881.98 328.091 859.229 322.445 810.842 317.622C765.34 313.047 733.109 312.429 662.466 314.737C642.064 315.397 630.442 315.52 630.194 315.026C630.112 314.861 631.266 310.286 632.832 304.846C634.357 299.405 636.047 293.429 636.542 291.574C637.531 287.7 639.468 285.021 642.394 283.537C643.301 283.084 662.425 275.047 684.887 265.691C795.839 219.488 841.63 198.386 876.622 177.284C901.021 162.57 921.175 147.279 939.434 129.68C942.731 126.506 947.759 122.137 950.562 119.994C956.703 115.378 959.423 112.699 961.608 109.402C965.152 103.879 966.1 95.8832 963.586 92.6272C962.927 91.7617 961.525 90.6489 960.495 90.1543C958.682 89.33 958.022 89.2888 947.677 89.3712C937.456 89.4124 918.62 89.7834 874.107 90.7313C837.302 91.5556 812.944 92.3799 795.386 93.4103C781.702 94.2346 724.701 98.6447 705.536 100.376C697.17 101.118 690.204 101.695 690.122 101.612C690.039 101.53 691.399 96.419 693.172 90.2367C697.376 75.3579 699.189 68.1452 700.961 59.2839C704.836 39.9951 705.825 25.446 703.888 16.5847C702.651 10.9382 698.488 -0.0250974 697.623 0.0985489C697.417 0.139764 695.026 1.0465 692.265 2.11811ZM813.191 165.537C813.315 165.991 653.44 233.955 653.11 233.584C652.739 233.213 655.336 223.28 659.787 207.577C662.136 199.416 665.021 189.195 666.176 184.909C667.33 180.581 668.813 176.13 669.432 175.017C670.833 172.462 673.636 170.483 676.603 169.906C677.757 169.7 686.825 169.206 696.675 168.835C710.729 168.34 766.494 165.991 783.021 165.208C789.987 164.878 813.026 165.125 813.191 165.537ZM608.886 176.789C608.886 176.954 605.836 187.794 602.044 200.818C598.294 213.801 593.842 229.38 592.153 235.398C584.487 262.435 584.116 263.383 579.087 265.691C571.421 269.235 483.55 305.958 483.138 305.793C483.014 305.711 483.756 302.043 484.828 297.633C497.893 243.764 501.561 228.061 506.054 207.165C507.537 200.117 508.98 193.77 509.186 193.028C509.804 191.132 511.782 188.948 513.39 188.453C514.75 188 569.731 180.911 591.988 178.314C598.665 177.531 604.723 176.83 605.383 176.748C607.65 176.459 608.886 176.459 608.886 176.789ZM643.919 388.307C719.343 389.914 737.19 391.027 764.887 395.726C777.705 397.91 803.959 403.598 809.811 405.452C815.664 407.348 823.454 410.81 835.283 416.869C847.688 423.216 848.554 423.752 852.263 427.049C854.406 428.986 856.179 430.635 856.179 430.759C856.179 431.295 828.853 443.123 812.696 449.635C768.225 467.44 720.662 482.937 657.52 500.166C629.824 507.708 568.124 523.658 567.835 523.37C567.547 523.081 572.905 505.029 583.745 469.707C589.597 450.666 597.181 425.813 600.643 414.52C604.064 403.227 607.073 393.582 607.32 393.088C609.71 388.595 612.472 387.4 619.808 387.689C622.322 387.812 633.162 388.06 643.919 388.307ZM547.887 390.945C547.887 392.84 523.076 476.302 506.424 530.376C504.9 535.405 503.828 537.053 501.273 538.331C500.407 538.784 492.947 540.515 484.333 542.246C475.884 543.978 455.73 548.181 439.532 551.561C423.375 554.941 409.98 557.702 409.816 557.62C409.609 557.537 411.134 552.385 413.154 546.162C417.028 534.292 437.553 467.193 450.001 425.607C454.04 412.212 457.584 400.713 457.914 400.053C459.027 397.828 461.005 396.138 463.189 395.52C464.426 395.149 470.32 394.654 478.192 394.242C485.281 393.871 501.973 392.882 515.286 392.016C542.818 390.244 547.887 390.079 547.887 390.945Z" fill="black"/>
</svg>
